# xmcd CD database file
#
# Track frame offsets:
#	150
#	19732
#	39152
#	62032
#	87940
#	106992
#	117075
#	128460
#	140795
#	167432
#	174370
#	186692
#	212575
#	230700
#
# Disc length: 3167 seconds
#
# Revision: 0
# Processed by: cddbd v1.5.1PL2 Copyright (c) Steve Scherf et al.
# Submitted via: CDex 1.51
#
DISCID=ba0c5d0e
DTITLE=Ｄｏｕｂｌｅ　Ｆａｍｏｕｓ - スーヴェニール
DYEAR=1900
DGENRE=World Music
TTITLE0=OIGAME JUANITA
TTITLE1=SAWA SAWA DE[']
TTITLE2=WHEEL BUG
TTITLE3=WELCOME TO THE PARTY
TTITLE4=DRIFTWOOD
TTITLE5=INTERLUDE 1
TTITLE6=FIESTA
TTITLE7=YE LAI XIANG(夜来香)
TTITLE8=Я ЧАЙКА(YA CHAIKA)
TTITLE9=PIO
TTITLE10=KESEN
TTITLE11=RUSTY SHIP
TTITLE12=SULIRAM
TTITLE13=PUPU HINU HINU
EXTD=
EXTT0=
EXTT1=
EXTT2=
EXTT3=
EXTT4=
EXTT5=
EXTT6=
EXTT7=
EXTT8=
EXTT9=
EXTT10=
EXTT11=
EXTT12=
EXTT13=
PLAYORDER=
